<?xml version="1.0" standalone="no"?>
<!DOCTYPE svg PUBLIC "-//W3C//DTD SVG 20010904//EN"
 "http://www.w3.org/TR/2001/REC-SVG-20010904/DTD/svg10.dtd">
<svg version="1.0" xmlns="http://www.w3.org/2000/svg"
 width="512.000000pt" height="512.000000pt" viewBox="0 0 512.000000 512.000000"
 preserveAspectRatio="xMidYMid meet">

<g transform="translate(0.000000,512.000000) scale(0.100000,-0.100000)"
fill="#000000" stroke="none">
<path d="M2305 5114 c-594 -38 -1041 -160 -1360 -372 -442 -293 -646 -744
-604 -1336 18 -256 63 -468 164 -771 144 -436 378 -897 709 -1400 459 -697
896 -1132 1221 -1215 98 -25 152 -25 247 -1 313 80 728 481 1164 1126 841
1243 1132 2341 809 3052 -72 157 -198 321 -332 435 -304 255 -705 400 -1291
464 -132 14 -602 26 -727 18z m662 -319 c843 -86 1330 -372 1486 -870 35 -113
49 -218 49 -374 -2 -482 -219 -1075 -700 -1911 -167 -289 -396 -616 -594 -845
-234 -271 -492 -474 -624 -492 -170 -23 -550 303 -891 764 -264 357 -604 948
-788 1368 -452 1036 -373 1712 241 2075 260 153 627 254 1059 290 72 5 150 12
175 14 85 7 445 -4 587 -19z"/>
</g>
</svg>
